HIERARCHY
ROOT root
{
	OFFSET 0.000000 0.000000 0.000000
	CHANNELS 6 Xposition Yposition Zposition Zrotation Yrotation Xrotation
	JOINT lhip
	{
		OFFSET 0.058581 -0.082280 -0.017664
		CHANNELS 3 Zrotation Yrotation Xrotation
		JOINT lknee
		{
			OFFSET 0.043451 -0.386469 0.008037
			CHANNELS 3 Zrotation Yrotation Xrotation
			JOINT lankle
			{
				OFFSET -0.014790 -0.426874 -0.037428
				CHANNELS 3 Zrotation Yrotation Xrotation
				JOINT ltoe
				{
					OFFSET 0.041054 -0.060286 0.122042
					CHANNELS 3 Zrotation Yrotation Xrotation
					End Site
					{
						OFFSET 0.000000 0.000000 0.000000
					}
				}
			}
		}
	}
	JOINT rhip
	{
		OFFSET -0.060310 -0.090513 -0.013543
		CHANNELS 3 Zrotation Yrotation Xrotation
		JOINT rknee
		{
			OFFSET -0.043257 -0.383688 -0.004843
			CHANNELS 3 Zrotation Yrotation Xrotation
			JOINT rankle
			{
				OFFSET 0.019056 -0.420046 -0.034562
				CHANNELS 3 Zrotation Yrotation Xrotation
				JOINT rtoe
				{
					OFFSET -0.034840 -0.062106 0.130323
					CHANNELS 3 Zrotation Yrotation Xrotation
					End Site
					{
						OFFSET 0.000000 0.000000 0.000000
					}
				}
			}
		}
	}
	JOINT lowerback
	{
		OFFSET 0.004439 0.124404 -0.038385
		CHANNELS 3 Zrotation Yrotation Xrotation
		JOINT upperback
		{
			OFFSET 0.004488 0.137956 0.026820
			CHANNELS 3 Zrotation Yrotation Xrotation
			JOINT chest
			{
				OFFSET -0.002265 0.056032 0.002855
				CHANNELS 3 Zrotation Yrotation Xrotation
				JOINT lowerneck
				{
					OFFSET -0.013390 0.211636 -0.033468
					CHANNELS 3 Zrotation Yrotation Xrotation
					JOINT upperneck
					{
						OFFSET 0.010113 0.088937 0.050410
						CHANNELS 3 Zrotation Yrotation Xrotation
						End Site
						{
							OFFSET 0.000000 0.000000 0.000000
						}
					}
				}
				JOINT lclavicle
				{
					OFFSET 0.071702 0.114000 -0.018898
					CHANNELS 3 Zrotation Yrotation Xrotation
					JOINT lshoulder
					{
						OFFSET 0.122921 0.045205 -0.019046
						CHANNELS 3 Zrotation Yrotation Xrotation
						JOINT lelbow
						{
							OFFSET 0.255332 -0.015649 -0.022946
							CHANNELS 3 Zrotation Yrotation Xrotation
							JOINT lwrist
							{
								OFFSET 0.265709 0.012698 -0.007375
								CHANNELS 3 Zrotation Yrotation Xrotation
								End Site
								{
									OFFSET 0.000000 0.000000 0.000000
								}
							}
						}
					}
				}
				JOINT rclavicle
				{
					OFFSET -0.082954 0.112472 -0.023707
					CHANNELS 3 Zrotation Yrotation Xrotation
					JOINT rshoulder
					{
						OFFSET -0.113228 0.046853 -0.008472
						CHANNELS 3 Zrotation Yrotation Xrotation
						JOINT relbow
						{
							OFFSET -0.260127 -0.014369 -0.031269
							CHANNELS 3 Zrotation Yrotation Xrotation
							JOINT rwrist
							{
								OFFSET -0.269108 0.006794 -0.006027
								CHANNELS 3 Zrotation Yrotation Xrotation
								End Site
								{
									OFFSET 0.000000 0.000000 0.000000
								}
							}
						}
					}
				}
			}
		}
	}
}
MOTION
Frames: 17
Frame Time: 0.033333
-0.009668 0.245909 1.010031 86.383663 -1.917612 85.595033 1.845998 0.578245 8.269067 -4.533353 -4.306125 3.307650 -0.598173 14.620821 -6.639997 0.000000 -0.000000 0.000000 -4.778524 -3.283557 2.427127 0.433141 0.784147 11.901240 6.116996 -10.709775 -9.920526 0.000000 -0.000000 0.000000 -1.502838 0.565733 7.027682 -0.816029 -0.253915 2.732493 -1.567385 3.131940 1.441640 -2.017900 0.231158 8.696240 2.051474 -0.886425 8.443689 -9.847578 4.016557 3.326382 -28.354277 1.105620 24.593551 -104.838010 -58.901185 125.161613 1.976264 -23.569110 -24.839565 12.352564 5.310696 2.868512 36.580000 -0.015803 28.267608 67.703466 62.363772 92.035784 15.105459 13.428572 7.071898 
-0.009539 0.246775 1.009772 86.532221 -1.811920 85.710780 1.878646 0.461733 8.055791 -4.513225 -4.338973 3.418845 -0.483163 14.614066 -6.604919 0.000000 -0.000000 0.000000 -4.729802 -3.398171 2.334436 0.470095 0.872581 11.880677 6.220885 -10.789588 -9.927361 0.000000 -0.000000 0.000000 -1.267723 0.460272 6.918950 -0.854728 -0.350017 2.568056 -1.637175 3.144540 1.576980 -2.088014 0.149818 8.612942 2.174386 -0.730133 8.534406 -9.692698 4.004185 3.455325 -28.577828 1.101196 24.433146 -104.600272 -58.882995 125.495185 2.445643 -23.395872 -25.429276 12.380650 5.375783 2.974306 36.521865 -0.049804 28.118924 67.825727 62.359005 92.297229 14.938314 13.520304 6.704942 
-0.009079 0.247251 1.009765 86.510695 -1.811506 85.640553 1.865606 0.457248 8.213670 -4.553787 -4.329123 3.341483 -0.483885 14.612882 -6.627615 0.000000 -0.000000 0.000000 -4.776954 -3.415270 2.456927 0.475776 0.876797 11.842184 6.229599 -10.780133 -9.901965 0.000000 -0.000000 0.000000 -1.294265 0.520380 6.867915 -0.823809 -0.316178 2.726006 -1.580650 3.100545 1.559332 -2.093800 0.141584 8.580088 2.150573 -0.693626 8.416193 -9.743566 3.981851 3.487656 -28.610153 1.103767 24.330615 -104.635854 -58.935969 125.643327 2.288874 -23.425961 -25.376922 12.356148 5.401258 3.031778 36.509551 -0.056086 28.053053 67.823887 62.334627 92.363208 15.057649 13.524849 6.745929 
-0.008581 0.248004 1.009847 86.504857 -1.819316 85.639462 1.807632 0.517164 8.243243 -4.502936 -4.321015 3.289332 -0.525089 14.625876 -6.617330 0.000000 -0.000000 0.000000 -4.817650 -3.409619 2.527119 0.437864 0.890063 11.770087 6.301351 -10.764056 -9.919361 0.000000 -0.000000 0.000000 -1.262641 0.510733 6.877916 -0.827239 -0.298997 2.645185 -1.571228 3.132487 1.591630 -2.114599 0.157179 8.527452 2.174590 -0.643931 8.422065 -9.672820 4.041604 3.449785 -28.759959 1.094444 24.263569 -104.520409 -58.926014 125.640624 2.091699 -23.325259 -25.430835 12.346706 5.321614 3.009199 36.616186 -0.089627 28.024576 67.760858 62.377218 92.326627 15.018792 13.382458 6.695294 
-0.008244 0.248519 1.009991 86.453939 -1.856760 85.613821 1.724618 0.561951 8.366075 -4.493009 -4.393618 3.198339 -0.476745 14.595675 -6.560857 0.000000 -0.000000 0.000000 -4.869621 -3.407803 2.593468 0.377290 0.899533 11.733802 6.317051 -10.746215 -9.894999 0.000000 -0.000000 0.000000 -1.243120 0.485956 6.907517 -0.853998 -0.254949 2.638927 -1.584753 3.134730 1.557573 -2.106573 0.138617 8.423037 2.164585 -0.596816 8.542088 -9.653141 4.112129 3.484571 -28.838234 1.118781 24.224022 -104.466293 -58.946722 125.678706 2.122601 -23.337466 -25.391512 12.360542 5.318967 3.004954 36.633594 -0.100340 28.006307 67.835172 62.359448 92.487431 15.293781 13.472396 6.590552 
-0.008019 0.249097 1.009934 86.363823 -1.856561 85.694750 1.688159 0.576781 8.355100 -4.487068 -4.283385 3.050869 -0.502730 14.656525 -6.523426 0.000000 -0.000000 0.000000 -4.874017 -3.361738 2.483927 0.318281 0.945115 11.749415 6.355895 -10.752568 -9.847937 0.000000 -0.000000 0.000000 -1.188570 0.467006 6.838433 -0.852721 -0.210662 2.593398 -1.592824 3.184414 1.555168 -2.101962 0.109563 8.373202 2.183445 -0.563855 8.541200 -9.619592 4.198154 3.436841 -28.879452 1.157031 24.237787 -104.575343 -59.016353 125.863005 2.109188 -23.245492 -25.562268 12.337598 5.295674 3.022702 36.647411 -0.087089 28.028638 67.924309 62.381090 92.541727 15.304426 13.594429 6.498031 
-0.007720 0.249887 1.009798 86.459593 -1.831432 85.732401 1.695107 0.589374 8.281517 -4.521290 -4.312930 3.125449 -0.465852 14.599930 -6.518451 0.000000 -0.000000 0.000000 -4.903785 -3.334831 2.428056 0.337560 0.807330 11.814608 6.355580 -10.764304 -9.888655 0.000000 -0.000000 0.000000 -1.095132 0.406751 6.832745 -0.839715 -0.234537 2.527160 -1.604747 3.194275 1.569758 -2.092257 0.110366 8.276309 2.138236 -0.645281 8.592580 -9.595276 4.304910 3.441311 -29.004315 1.110430 24.132156 -104.415425 -59.039698 125.841590 1.874780 -23.286228 -25.613312 12.329099 5.243473 3.042533 36.677142 -0.120117 28.013160 67.804846 62.447753 92.437491 15.265563 13.648595 6.297044 
-0.007538 0.250514 1.009574 86.487054 -1.821922 85.791021 1.674833 0.547220 8.211694 -4.528970 -4.252967 3.127168 -0.510063 14.598387 -6.528084 0.000000 -0.000000 0.000000 -4.941530 -3.347235 2.362844 0.349155 0.821473 11.836513 6.353803 -10.774277 -9.886882 0.000000 -0.000000 0.000000 -0.954895 0.373175 6.823330 -0.863525 -0.223420 2.454482 -1.674739 3.232849 1.613572 -2.073672 0.065364 8.183508 2.190485 -0.652146 8.549671 -9.615006 4.377507 3.407965 -28.968090 1.108699 24.110984 -104.489773 -59.087837 125.841237 1.682856 -23.283016 -25.629591 12.318669 5.197074 3.014754 36.714480 -0.157670 27.998187 67.842570 62.438635 92.431740 15.530369 13.605508 6.360635 
-0.007151 0.251199 1.009594 86.516836 -1.858945 85.773658 1.580146 0.513031 8.252685 -4.522629 -4.211494 3.117090 -0.474439 14.539875 -6.473969 0.000000 -0.000000 0.000000 -5.030851 -3.376687 2.399367 0.342225 0.800851 11.844806 6.369218 -10.791340 -9.857318 0.000000 -0.000000 0.000000 -0.941667 0.382902 6.849362 -0.839627 -0.271256 2.448807 -1.633710 3.229861 1.610832 -2.075504 0.093517 8.196226 2.133132 -0.625912 8.449921 -9.692489 4.442608 3.405490 -29.024230 1.152362 24.023905 -104.371653 -59.090833 125.734514 1.534111 -23.374603 -25.475995 12.340406 5.176613 2.995893 36.673031 -0.202242 28.022976 67.875665 62.513095 92.446224 15.425038 13.620669 6.443512 
-0.006569 0.251643 1.009462 86.598075 -1.874912 85.750358 1.559881 0.510250 8.285698 -4.547151 -4.277318 3.121568 -0.522525 14.551472 -6.522387 0.000000 -0.000000 0.000000 -5.073961 -3.406848 2.474651 0.324347 0.770164 11.830135 6.383916 -10.778385 -9.900181 0.000000 -0.000000 0.000000 -0.881796 0.351389 6.856635 -0.834090 -0.292476 2.435873 -1.640265 3.208205 1.586943 -2.007226 0.115813 8.196444 2.075512 -0.594707 8.562696 -9.674427 4.507633 3.408944 -29.041794 1.144696 23.986768 -104.480731 -59.079357 125.919436 1.380261 -23.305406 -25.466832 12.318888 5.125344 2.982431 36.733219 -0.113384 28.011809 67.786738 62.427835 92.385867 15.384795 13.637123 6.267670 
-0.006123 0.252188 1.009396 86.705609 -1.896711 85.760300 1.488572 0.465595 8.273048 -4.514607 -4.282164 3.100498 -0.552066 14.559340 -6.521560 0.000000 -0.000000 0.000000 -5.137458 -3.413215 2.509250 0.310132 0.682203 11.832652 6.425879 -10.777976 -9.879436 0.000000 -0.000000 0.000000 -0.820117 0.314322 6.783796 -0.824035 -0.356060 2.474399 -1.638689 3.213768 1.609810 -1.991859 0.090272 8.216346 2.052263 -0.629299 8.583781 -9.670238 4.509261 3.413016 -29.122821 1.134881 23.951536 -104.403817 -59.152120 125.925012 1.245257 -23.404416 -25.497012 12.295899 5.075345 2.981008 36.705698 -0.105851 27.964552 67.848350 62.441147 92.602516 15.622967 13.641520 6.212546 
-0.005671 0.252549 1.009295 86.755371 -1.893320 85.765925 1.479047 0.415741 8.276924 -4.548028 -4.255002 3.106918 -0.529562 14.546052 -6.486004 0.000000 -0.000000 0.000000 -5.165238 -3.457720 2.581931 0.310589 0.671069 11.760506 6.432109 -10.789782 -9.881012 0.000000 -0.000000 0.000000 -0.755650 0.325318 6.708047 -0.812925 -0.399596 2.538546 -1.638763 3.234571 1.605259 -1.973587 0.100969 8.224389 2.125128 -0.663915 8.615368 -9.683847 4.447554 3.432071 -29.165158 1.167025 23.938019 -104.468154 -59.190587 126.011886 1.123988 -23.365082 -25.350533 12.304604 5.084066 2.995619 36.701250 -0.176362 27.887970 67.943987 62.450638 92.728053 15.707697 13.631466 6.228876 
-0.005450 0.252762 1.009281 86.763448 -1.885449 85.766616 1.467725 0.435983 8.294501 -4.539753 -4.303567 3.136830 -0.504414 14.496325 -6.514406 0.000000 -0.000000 0.000000 -5.179383 -3.504814 2.599673 0.309374 0.686338 11.749992 6.397825 -10.776282 -9.882965 0.000000 -0.000000 0.000000 -0.657057 0.300914 6.699233 -0.821695 -0.389459 2.538903 -1.686578 3.205021 1.606953 -1.969560 0.096583 8.204547 2.119185 -0.686535 8.641889 -9.688304 4.500023 3.429893 -29.123622 1.164316 23.945856 -104.528447 -59.238992 126.131267 1.113851 -23.391734 -25.314004 12.290814 5.079278 2.984823 36.740676 -0.091674 27.887034 67.931862 62.390179 92.716396 15.748839 13.588278 6.193604 
-0.004957 0.252811 1.009317 86.763424 -1.877403 85.775912 1.469778 0.466114 8.360025 -4.521290 -4.307405 3.038881 -0.536623 14.489972 -6.477428 0.000000 -0.000000 0.000000 -5.179678 -3.550519 2.653891 0.294283 0.700713 11.677941 6.441483 -10.756591 -9.848022 0.000000 -0.000000 0.000000 -0.649684 0.337413 6.577665 -0.791658 -0.378811 2.666485 -1.633310 3.191883 1.584383 -1.992618 0.054619 8.230276 2.128782 -0.626497 8.591990 -9.685744 4.455072 3.455755 -29.235356 1.168562 23.905279 -104.418444 -59.278042 125.852526 1.197393 -23.449897 -25.317795 12.267810 5.063137 2.966031 36.707651 -0.105786 27.832658 68.025079 62.382053 92.732545 16.116882 13.567407 6.296965 
-0.004836 0.252946 1.009323 86.747792 -1.890681 85.796280 1.444606 0.471572 8.366335 -4.511553 -4.293969 3.001441 -0.539278 14.485202 -6.447227 0.000000 -0.000000 0.000000 -5.190392 -3.526132 2.674717 0.276502 0.716516 11.593737 6.416477 -10.777552 -9.803805 0.000000 -0.000000 0.000000 -0.639781 0.329487 6.557760 -0.782436 -0.371178 2.679539 -1.628909 3.215561 1.570982 -1.961504 0.082396 8.204832 2.097715 -0.552497 8.606038 -9.732735 4.492691 3.398957 -29.195900 1.142215 23.917521 -104.444738 -59.266746 125.841837 1.102757 -23.430252 -25.212763 12.314414 5.059366 2.956482 36.611795 -0.091978 27.869998 68.087334 62.390742 92.714002 16.112420 13.583960 6.345315 
-0.004583 0.253043 1.009240 86.728306 -1.911290 85.835257 1.411604 0.506714 8.381957 -4.494205 -4.282267 2.919255 -0.570309 14.487830 -6.470481 0.000000 -0.000000 0.000000 -5.228189 -3.536165 2.669073 0.287970 0.716247 11.553975 6.388316 -10.765139 -9.815901 0.000000 -0.000000 0.000000 -0.619152 0.324986 6.502720 -0.793009 -0.360072 2.672739 -1.647835 3.213652 1.577335 -1.945456 0.102468 8.240209 2.071007 -0.584771 8.551389 -9.729679 4.543121 3.339690 -29.179996 1.112216 23.946447 -104.375746 -59.230510 125.801381 1.184511 -23.440419 -25.329003 12.356319 5.030782 2.982466 36.576191 -0.058231 27.902338 68.097338 62.396215 92.687817 15.956308 13.608396 6.313618 
-0.004410 0.253032 1.009223 86.753656 -1.898626 85.827527 1.426160 0.495978 8.395329 -4.487777 -4.286078 2.904652 -0.548408 14.477140 -6.446515 0.000000 -0.000000 0.000000 -5.215213 -3.546805 2.708357 0.285146 0.719371 11.518877 6.445166 -10.781317 -9.826401 0.000000 -0.000000 0.000000 -0.576824 0.327103 6.516853 -0.788958 -0.371391 2.662368 -1.667928 3.207978 1.584202 -1.901347 0.095993 8.240016 2.059105 -0.567153 8.558543 -9.742594 4.565182 3.310136 -29.156236 1.062067 23.950346 -104.391944 -59.204392 125.840966 1.166708 -23.474159 -25.300673 12.364363 5.029437 2.984167 36.600310 -0.067218 27.936131 67.931948 62.460233 92.507167 15.975740 13.562432 6.402538 
